<?xml version="1.0" encoding="UTF-8" standalone="no"?>
<!-- Created with Inkscape (http://www.inkscape.org/) -->

<svg
   xmlns:dc="http://purl.org/dc/elements/1.1/"
   xmlns:cc="http://creativecommons.org/ns#"
   xmlns:rdf="http://www.w3.org/1999/02/22-rdf-syntax-ns#"
   xmlns:svg="http://www.w3.org/2000/svg"
   xmlns="http://www.w3.org/2000/svg"
   xmlns:xlink="http://www.w3.org/1999/xlink"
   version="1.1"
   width="209.30724"
   height="71.368752"
   id="svg2"
   xml:space="preserve"><metadata
     id="metadata8"><rdf:RDF><cc:Work
         rdf:about=""><dc:format>image/svg+xml</dc:format><dc:type
           rdf:resource="http://purl.org/dc/dcmitype/StillImage" /><dc:title></dc:title></cc:Work></rdf:RDF></metadata><defs
     id="defs6"><clipPath
       id="clipPath16"><path
         d="m 0,49.44 161.28,0 L 161.28,0 0,0 0,49.44 z"
         id="path18" /></clipPath><clipPath
       id="clipPath24"><path
         d="m -3.02667,55.0533 173.49967,0 0,-66.5 -173.49967,0 0,66.5 z"
         id="path26" /></clipPath><clipPath
       id="clipPath38"><path
         d="m 0.094,0.015 161.186,0 0,49.424 -161.186,0 0,-49.424 z"
         id="path40" /></clipPath><mask
       id="mask46"><image
         xlink:href="/home/cesco/Scaricati/MDM_Logo_img0.png"
         width="1"
         height="1"
         id="image48" /></mask><clipPath
       id="clipPath56"><path
         d="m 0,49.44 161.28,0 L 161.28,0 0,0 0,49.44 z"
         id="path58" /></clipPath></defs><g
     transform="matrix(1.25,0,0,-1.25,4.512125,66.36875)"
     id="g10"><g
       id="g12" /><g
       id="g52"><g
         clip-path="url(#clipPath56)"
         id="g54"><g
           transform="translate(76.4377,35.6489)"
           id="g60"><path
             d="m 0,0 c -4.868,4.293 -17.445,1.293 -19.485,-5.179 l -4.063,-13.125 6,0 3.578,11.559 c 1.339,4.941 10.672,5.024 9.421,0.554 l -3.749,-12.113 6,0 3.578,11.559 c 1.339,4.941 10.672,5.024 9.421,0.553 l -3.749,-12.112 6,0 4.063,13.125 C 18.53,1.853 6.781,4.014 0,0"
             id="path62"
             style="fill:#ffffff;fill-opacity:1;fill-rule:nonzero;stroke:none" /></g><g
           transform="translate(142.6877,35.6489)"
           id="g64"><path
             d="m 0,0 c -4.868,4.293 -17.445,1.293 -19.485,-5.179 l -4.063,-13.125 6,0 3.578,11.559 c 1.339,4.941 10.672,5.024 9.421,0.554 l -3.749,-12.113 6,0 3.578,11.559 c 1.339,4.941 10.672,5.024 9.421,0.553 l -3.749,-12.112 6,0 4.063,13.125 C 18.53,1.853 6.781,4.014 0,0"
             id="path66"
             style="fill:#ffffff;fill-opacity:1;fill-rule:nonzero;stroke:none" /></g><g
           transform="translate(119.14,49.095)"
           id="g68"><path
             d="m 0,0 6.75,0 -7.062,-23.875 c -2.98,-10.125 -25.242,-13.042 -24.172,-0.141 1,8.23 9.421,14.547 19.609,12.047 l -1.687,-5.5 c -4.563,2.438 -10.969,0.344 -11.039,-5.488 0.476,-6.074 10.351,-3.918 11.479,1.872 L 0,0 z"
             id="path70"
             style="fill:#ffffff;fill-opacity:1;fill-rule:nonzero;stroke:none" /></g><g
           transform="translate(44.7233,20.5833)"
           id="g72"><path
             d="m 0,0 c 0,-1.427 -9.924,-2.583 -22.167,-2.583 -12.242,0 -22.166,1.156 -22.166,2.583 0,1.427 9.924,2.583 22.166,2.583 C -9.924,2.583 0,1.427 0,0"
             id="path74"
             style="fill:#ffffff;fill-opacity:1;fill-rule:nonzero;stroke:none" /></g><g
           transform="translate(47.89,27.5)"
           id="g76"><path
             d="m 0,0 c 0,-1.427 -9.924,-2.583 -22.167,-2.583 -12.242,0 -22.166,1.156 -22.166,2.583 0,1.427 9.924,2.583 22.166,2.583 C -9.924,2.583 0,1.427 0,0"
             id="path78"
             style="fill:#00a7e4;fill-opacity:1;fill-rule:nonzero;stroke:none" /></g><g
           transform="translate(51.0567,34.4167)"
           id="g80"><path
             d="m 0,0 c 0,-1.427 -9.924,-2.583 -22.167,-2.583 -12.242,0 -22.166,1.156 -22.166,2.583 0,1.427 9.924,2.583 22.166,2.583 C -9.924,2.583 0,1.427 0,0"
             id="path82"
             style="fill:#ef202a;fill-opacity:1;fill-rule:nonzero;stroke:none" /></g><g
           transform="translate(49.4837,0.5325)"
           id="g84"><path
             d="M 0,0 2.25,7 4.156,3.5 8.25,7 6.344,0"
             id="path86"
             style="fill:none;stroke:#ffffff;stroke-width:1.10000002;stroke-linecap:round;stroke-linejoin:round;stroke-miterlimit:10;stroke-opacity:1;stroke-dasharray:none" /></g><g
           transform="translate(58.4525,0.5325)"
           id="g88"><path
             d="M 0,0 5.156,7 6.469,0"
             id="path90"
             style="fill:none;stroke:#ffffff;stroke-width:1.10000002;stroke-linecap:round;stroke-linejoin:round;stroke-miterlimit:10;stroke-opacity:1;stroke-dasharray:none" /></g><g
           transform="translate(59.7416,2.2825)"
           id="g92"><path
             d="M 0,0 4.852,0"
             id="path94"
             style="fill:none;stroke:#ffffff;stroke-width:0.80000001;stroke-linecap:round;stroke-linejoin:round;stroke-miterlimit:10;stroke-opacity:1;stroke-dasharray:none" /></g><g
           transform="translate(73.7536,7.2159)"
           id="g96"><path
             d="m 0,0 c -1.543,1.281 -3.054,0.61 -4.426,-0.777 -2.938,-2.969 -0.781,-8.063 3.25,-4.938"
             id="path98"
             style="fill:none;stroke:#ffffff;stroke-width:1.10000002;stroke-linecap:round;stroke-linejoin:round;stroke-miterlimit:10;stroke-opacity:1;stroke-dasharray:none" /></g><g
           transform="translate(77.3587,7.5325)"
           id="g100"><path
             d="M 0,0 -2.031,-6.781"
             id="path102"
             style="fill:none;stroke:#ffffff;stroke-width:1.10000002;stroke-linecap:round;stroke-linejoin:round;stroke-miterlimit:10;stroke-opacity:1;stroke-dasharray:none" /></g><g
           transform="translate(82.5019,7.4231)"
           id="g104"><path
             d="M 0,0 -2.031,-6.781"
             id="path106"
             style="fill:none;stroke:#ffffff;stroke-width:1.10000002;stroke-linecap:round;stroke-linejoin:round;stroke-miterlimit:10;stroke-opacity:1;stroke-dasharray:none" /></g><g
           transform="translate(85.9705,7.4231)"
           id="g108"><path
             d="M 0,0 -2.031,-6.781"
             id="path110"
             style="fill:none;stroke:#ffffff;stroke-width:1.10000002;stroke-linecap:round;stroke-linejoin:round;stroke-miterlimit:10;stroke-opacity:1;stroke-dasharray:none" /></g><g
           transform="translate(76.6413,4.345)"
           id="g112"><path
             d="M 0,0 4.878,0"
             id="path114"
             style="fill:none;stroke:#ffffff;stroke-width:0.80000001;stroke-linecap:round;stroke-linejoin:round;stroke-miterlimit:10;stroke-opacity:1;stroke-dasharray:none" /></g><g
           transform="translate(87.5462,0.7513)"
           id="g116"><path
             d="M 0,0 2.125,6.781 5.437,0.156 7.531,6.969"
             id="path118"
             style="fill:none;stroke:#ffffff;stroke-width:1.10000002;stroke-linecap:round;stroke-linejoin:round;stroke-miterlimit:10;stroke-opacity:1;stroke-dasharray:none" /></g><g
           transform="translate(103.1087,7.8985)"
           id="g120"><path
             d="m 0,0 -4.812,0 -2,-7.147 4.562,0"
             id="path122"
             style="fill:none;stroke:#ffffff;stroke-width:1.10000002;stroke-linecap:round;stroke-linejoin:round;stroke-miterlimit:10;stroke-opacity:1;stroke-dasharray:none" /></g><g
           transform="translate(97.6087,4.72)"
           id="g124"><path
             d="M 0,0 4.219,0"
             id="path126"
             style="fill:none;stroke:#ffffff;stroke-width:0.80000001;stroke-linecap:round;stroke-linejoin:round;stroke-miterlimit:10;stroke-opacity:1;stroke-dasharray:none" /></g><g
           transform="translate(123.765,7.8985)"
           id="g128"><path
             d="m 0,0 -4.812,0 -2,-7.147 4.562,0"
             id="path130"
             style="fill:none;stroke:#ffffff;stroke-width:1.10000002;stroke-linecap:round;stroke-linejoin:round;stroke-miterlimit:10;stroke-opacity:1;stroke-dasharray:none" /></g><g
           transform="translate(118.265,4.72)"
           id="g132"><path
             d="M 0,0 4.219,0"
             id="path134"
             style="fill:none;stroke:#ffffff;stroke-width:0.80000001;stroke-linecap:round;stroke-linejoin:round;stroke-miterlimit:10;stroke-opacity:1;stroke-dasharray:none" /></g><g
           transform="translate(134.7412,7.5325)"
           id="g136"><path
             d="M 0,0 -2.031,-6.781"
             id="path138"
             style="fill:none;stroke:#ffffff;stroke-width:1.10000002;stroke-linecap:round;stroke-linejoin:round;stroke-miterlimit:10;stroke-opacity:1;stroke-dasharray:none" /></g><g
           transform="translate(145.0185,0.8606)"
           id="g140"><path
             d="M 0,0 2.125,6.781 5.437,0.156 7.531,6.969"
             id="path142"
             style="fill:none;stroke:#ffffff;stroke-width:1.10000002;stroke-linecap:round;stroke-linejoin:round;stroke-miterlimit:10;stroke-opacity:1;stroke-dasharray:none" /></g><g
           transform="translate(109.0827,0.7513)"
           id="g144"><path
             d="m 0,0 2.141,7.147 1.323,0 C 8.698,7.147 6.01,0 1.417,0 L 0,0 z"
             id="path146"
             style="fill:none;stroke:#ffffff;stroke-width:1.10000002;stroke-linecap:round;stroke-linejoin:round;stroke-miterlimit:10;stroke-opacity:1;stroke-dasharray:none" /></g><g
           transform="translate(131.2025,6.72)"
           id="g148"><path
             d="m 0,0 c -0.594,1.062 -1.625,1.5 -2.969,1.312 -1.343,-0.187 -1.984,-1.296 -1.984,-2.015 0,-0.719 0.883,-1.309 1.726,-1.559 0.844,-0.25 2.114,-0.653 2.286,-1.513 0.182,-0.908 -0.644,-1.815 -1.622,-2.084 -2.328,-0.641 -3.359,0.765 -3.546,1.093"
             id="path150"
             style="fill:none;stroke:#ffffff;stroke-width:1.10000002;stroke-linecap:round;stroke-linejoin:round;stroke-miterlimit:10;stroke-opacity:1;stroke-dasharray:none" /></g><g
           transform="translate(143.0983,7.1158)"
           id="g152"><path
             d="m 0,0 c -0.646,0.792 -2.542,1.229 -4.292,-0.646 -1.849,-1.982 -1.341,-4.161 -1,-4.75 0.834,-1.437 2.858,-1.401 3.787,-0.047 0.56,0.817 0.714,1.522 0.828,1.875 0.053,0.163 0.187,0.237 0.187,0.237 l -1.901,-0.006"
             id="path154"
             style="fill:none;stroke:#ffffff;stroke-width:1.10000002;stroke-linecap:round;stroke-linejoin:round;stroke-miterlimit:10;stroke-opacity:1;stroke-dasharray:none" /></g></g></g></g></svg>