<?xml version="1.0" encoding="utf-8"?>
<!-- Generator: Adobe Illustrator 18.0.0, SVG Export Plug-In . SVG Version: 6.00 Build 0)  -->
<!DOCTYPE svg PUBLIC "-//W3C//DTD SVG 1.1//EN" "http://www.w3.org/Graphics/SVG/1.1/DTD/svg11.dtd">
<svg version="1.1" id="Layer_3" xmlns="http://www.w3.org/2000/svg" xmlns:xlink="http://www.w3.org/1999/xlink" x="0px" y="0px"
	 viewBox="0 0 190 55" enable-background="new 0 0 190 55" xml:space="preserve">
<path fill="#FFFFFF" d="M83.154,16.39c-4.868-4.293-17.445-1.293-19.485,5.179l-4.063,13.125h6l3.578-11.559
	c1.339-4.941,10.672-5.024,9.421-0.553l-3.749,12.113h6l3.578-11.559c1.339-4.941,10.672-5.024,9.421-0.553l-3.749,12.112h6
	l4.063-13.125C101.685,14.537,89.936,12.376,83.154,16.39z"/>
<path fill="#FFFFFF" d="M149.404,16.39c-4.868-4.293-17.445-1.293-19.485,5.179l-4.062,13.125h6l3.578-11.559
	c1.339-4.941,10.672-5.024,9.421-0.553l-3.749,12.113h6l3.578-11.559c1.339-4.941,10.672-5.024,9.421-0.553l-3.749,12.112h6
	l4.063-13.125C167.935,14.537,156.186,12.376,149.404,16.39z"/>
<path fill="#FFFFFF" d="M125.857,2.944h6.75l-7.063,23.875c-2.979,10.125-25.242,13.042-24.172,0.141
	c1-8.229,9.422-14.547,19.609-12.047l-1.688,5.5c-4.562-2.438-10.969-0.344-11.038,5.489c0.476,6.074,10.351,3.918,11.479-1.872
	L125.857,2.944z"/>
<ellipse fill="#FFFFFF" cx="29.273" cy="31.456" rx="22.167" ry="2.583"/>
<ellipse fill="#00A7E4" cx="32.44" cy="24.539" rx="22.167" ry="2.583"/>
<ellipse fill="#EF202A" cx="35.607" cy="17.622" rx="22.167" ry="2.583"/>
<polyline fill="none" stroke="#FFFFFF" stroke-width="1.1" stroke-linecap="round" stroke-linejoin="round" stroke-miterlimit="10" points="
	56.2,51.506 58.45,44.506 60.357,48.006 64.45,44.506 62.544,51.506 "/>
<polyline fill="none" stroke="#FFFFFF" stroke-width="1.1" stroke-linecap="round" stroke-linejoin="round" stroke-miterlimit="10" points="
	65.169,51.506 70.325,44.506 71.638,51.506 "/>
<line fill="none" stroke="#FFFFFF" stroke-width="0.8" stroke-linecap="round" stroke-linejoin="round" stroke-miterlimit="10" x1="66.458" y1="49.756" x2="71.31" y2="49.756"/>
<path fill="none" stroke="#FFFFFF" stroke-width="1.1" stroke-linecap="round" stroke-linejoin="round" stroke-miterlimit="10" d="
	M80.47,44.823c-1.543-1.281-3.054-0.61-4.426,0.777c-2.938,2.969-0.781,8.063,3.25,4.938"/>
<line fill="none" stroke="#FFFFFF" stroke-width="1.1" stroke-linecap="round" stroke-linejoin="round" stroke-miterlimit="10" x1="84.075" y1="44.506" x2="82.044" y2="51.288"/>
<line fill="none" stroke="#FFFFFF" stroke-width="1.1" stroke-linecap="round" stroke-linejoin="round" stroke-miterlimit="10" x1="89.219" y1="44.616" x2="87.187" y2="51.397"/>
<line fill="none" stroke="#FFFFFF" stroke-width="1.1" stroke-linecap="round" stroke-linejoin="round" stroke-miterlimit="10" x1="92.687" y1="44.616" x2="90.656" y2="51.397"/>
<line fill="none" stroke="#FFFFFF" stroke-width="0.8" stroke-linecap="round" stroke-linejoin="round" stroke-miterlimit="10" x1="83.358" y1="47.694" x2="88.235" y2="47.694"/>
<polyline fill="none" stroke="#FFFFFF" stroke-width="1.1" stroke-linecap="round" stroke-linejoin="round" stroke-miterlimit="10" points="
	94.263,51.288 96.388,44.506 99.7,51.131 101.794,44.319 "/>
<polyline fill="none" stroke="#FFFFFF" stroke-width="1.1" stroke-linecap="round" stroke-linejoin="round" stroke-miterlimit="10" points="
	109.825,44.14 105.013,44.14 103.013,51.288 107.575,51.288 "/>
<line fill="none" stroke="#FFFFFF" stroke-width="0.8" stroke-linecap="round" stroke-linejoin="round" stroke-miterlimit="10" x1="104.325" y1="47.319" x2="108.544" y2="47.319"/>
<polyline fill="none" stroke="#FFFFFF" stroke-width="1.1" stroke-linecap="round" stroke-linejoin="round" stroke-miterlimit="10" points="
	130.482,44.14 125.669,44.14 123.669,51.288 128.232,51.288 "/>
<line fill="none" stroke="#FFFFFF" stroke-width="0.8" stroke-linecap="round" stroke-linejoin="round" stroke-miterlimit="10" x1="124.982" y1="47.319" x2="129.2" y2="47.319"/>
<line fill="none" stroke="#FFFFFF" stroke-width="1.1" stroke-linecap="round" stroke-linejoin="round" stroke-miterlimit="10" x1="141.458" y1="44.506" x2="139.427" y2="51.288"/>
<polyline fill="none" stroke="#FFFFFF" stroke-width="1.1" stroke-linecap="round" stroke-linejoin="round" stroke-miterlimit="10" points="
	151.735,51.178 153.86,44.397 157.173,51.022 159.266,44.21 "/>
<path fill="none" stroke="#FFFFFF" stroke-width="1.1" stroke-linecap="round" stroke-linejoin="round" stroke-miterlimit="10" d="
	M115.799,51.288l2.141-7.147h1.323c5.234,0,2.547,7.147-2.047,7.147H115.799z"/>
<path fill="none" stroke="#FFFFFF" stroke-width="1.1" stroke-linecap="round" stroke-linejoin="round" stroke-miterlimit="10" d="
	M137.919,45.319c-0.594-1.063-1.625-1.5-2.969-1.313s-1.984,1.297-1.984,2.016s0.883,1.309,1.727,1.559s2.114,0.653,2.286,1.513
	c0.182,0.909-0.644,1.816-1.621,2.085c-2.328,0.641-3.359-0.766-3.547-1.094"/>
<path fill="none" stroke="#FFFFFF" stroke-width="1.1" stroke-linecap="round" stroke-linejoin="round" stroke-miterlimit="10" d="
	M149.815,44.923c-0.646-0.792-2.542-1.229-4.292,0.646c-1.85,1.982-1.341,4.162-1,4.75c0.833,1.438,2.858,1.401,3.786,0.047
	c0.56-0.816,0.714-1.522,0.828-1.875c0.053-0.163,0.188-0.236,0.188-0.236l-1.901,0.005"/>
<g>
	<path fill="#FFFFFF" d="M185.708,14.063c0,3.719-2.919,6.639-6.719,6.639c-3.759,0-6.759-2.919-6.759-6.639
		c0-3.64,3-6.559,6.759-6.559C182.789,7.504,185.708,10.423,185.708,14.063z M173.91,14.063c0,2.919,2.16,5.239,5.119,5.239
		c2.88,0,4.999-2.32,4.999-5.199c0-2.919-2.119-5.279-5.039-5.279C176.07,8.824,173.91,11.184,173.91,14.063z M177.949,17.502h-1.52
		v-6.559c0.6-0.12,1.439-0.2,2.52-0.2c1.24,0,1.8,0.2,2.28,0.48c0.359,0.28,0.64,0.8,0.64,1.439c0,0.72-0.561,1.28-1.36,1.52v0.08
		c0.641,0.24,1,0.72,1.2,1.6c0.2,1,0.32,1.399,0.479,1.64h-1.64c-0.199-0.24-0.319-0.84-0.52-1.6c-0.12-0.72-0.52-1.04-1.359-1.04
		h-0.721V17.502z M177.989,13.783h0.72c0.84,0,1.521-0.28,1.521-0.96c0-0.6-0.44-1-1.4-1c-0.399,0-0.68,0.04-0.84,0.08V13.783z"/>
</g>
</svg>
